<?xml version="1.0" encoding="UTF-8"?>
<svg version="1.1" viewBox="0 0 1024 1024" width="1024" height="1024" xmlns="http://www.w3.org/2000/svg">
<path transform="translate(315,198)" d="m0 0h395l23 2 17 4 16 6 17 9 12 9 12 11 9 10 10 15 9 19 5 17 3 20v387l-3 20-5 16-7 16-9 14-9 11-12 12-15 11-19 10-24 8-19 3h-421l-25-5-16-6-14-7-12-8-13-11-9-9-11-15-10-19-6-18-3-14-1-9v-387l3-19 6-20 8-16 7-11 9-11 13-13 15-11 19-10 21-7 16-3zm395 88-9 3-8 6-8 10-11 16-14 20-13 19-12 17-32 46-13 19-14 20-13 19-13 18-15 22-12 17-2 2-10-14-26-36-9-10-8-5-3-1h-13l-10 5-7 8-3 9 1 11 6 11 8 10 10 14 42 57 7 9 7 5 5 2 12 1 10-3 8-6 7-8 16-23 12-17 13-18 11-16 14-20 16-23 13-18 16-23 12-17 28-40 12-17 13-18 11-16 4-9 1-10-2-9-6-9-7-6-7-3-5-1zm-404 42-8 4-6 7-2 5v10l4 8 7 6 5 2h258l9-4 6-7 2-6v-8l-3-8-8-7-6-2zm0 96-10 5-4 5-2 6v9l3 7 5 5 4 3 4 1h101l6-3 5-5 3-4 1-3v-10l-4-8-7-6-6-2zm403 49-9 4-7 6-4 8-1 7v132l-2 15-4 12-8 15-11 12-8 7-15 9-13 5-18 4-1 2 2 2v6l2 9 1 7-1 2v15l-2 4v4l-3 1h11l22-4 18-6 16-8 14-9 13-11 9-9 10-13 9-15 8-20 4-16 1-8v-147l-3-9-7-8-8-4-4-1zm-403 47-7 3-5 4-4 9v9l4 8 7 6 5 2h98l8-4 5-6 2-5v-11l-5-8-6-5-5-2zm4 94-10 3-6 5-3 5-1 4v9l4 9 6 5 8 3h148l8-3 7-6 3-8v-9l-4-8-7-6-9-3z" fill="#1D98FC"/>
</svg>
